OpenSim_Sub05_CSStiffKnee_RCS.mot
version=1
nRows=61
nColumns=11
inDegrees=no
endheader
time	Top_Thigh	Med_Thigh	Bot_Thigh	Top_Shank	2nd_Top_Shank	2nd_Bot_Shank	Bot_Shank	BNOx	BNOy	BNOZ
0	1207.78360153	1300.91478195	1168.81661948	1120.90851601	1303.94213806	1022.03919706	1059.92405889	0	0	0
0.01000000	1207.48540357	1300.91858549	1168.78663327	1120.77484036	1303.92462055	1022.07412173	1059.90055886	0	0	0
0.02000000	1207.08850918	1300.95650307	1168.82016993	1120.60691051	1303.92505972	1022.10285456	1059.90049425	0	0	0
0.03000000	1206.60733472	1301.00472065	1168.88717062	1120.42362843	1303.93844253	1022.11599341	1059.91756828	0	0	0
0.04000000	1206.05629655	1301.03942422	1168.95757653	1120.24389613	1303.95975593	1022.10413615	1059.94548414	0	0	0
0.05000000	1205.44981105	1301.03679974	1169.00132881	1120.08661558	1303.98398688	1022.05788065	1059.97794502	0	0	0
0.06000000	1204.80234096	1300.97325429	1168.98852239	1119.97055656	1304.00607505	1021.96794128	1060.00867873	0	0	0
0.07000000	1204.13193728	1300.84230192	1168.90114791	1119.90425979	1304.01730157	1021.83404726	1060.03331597	0	0	0
0.08000000	1203.46273340	1300.66645419	1168.74136014	1119.87892702	1304.00274605	1021.67120856	1060.05071300	0	0	0
0.09000000	1202.81945185	1300.47103154	1168.51326701	1119.88408043	1303.94688742	1021.49591533	1060.06003853	0	0	0
0.10000000	1202.22681520	1300.28135438	1168.22097648	1119.90924224	1303.83420459	1021.32465770	1060.06046129	0	0	0
0.11000000	1201.70954597	1300.12274312	1167.86859650	1119.94393464	1303.64917646	1021.17392584	1060.05114998	0	0	0
0.12000000	1201.29236672	1300.02051819	1167.46023502	1119.97767982	1303.37628196	1021.06020989	1060.03127331	0	0	0
0.13000000	1201	1300	1167.00000000	1120	1303.00000000	1021	1060	0	0	0
0.14000000	1200.84676672	1300.07750957	1166.49395604	1120.00370106	1302.51474261	1021.00167988	1059.95322262	0	0	0
0.15000000	1200.80538128	1300.23337029	1165.95599442	1119.99472370	1301.95465429	1021.04120751	1059.87372921	0	0	0
0.16000000	1200.83815645	1300.43890616	1165.40196308	1119.98229230	1301.36381267	1021.08643446	1059.74103166	0	0	0
0.17000000	1200.90740500	1300.66544115	1164.84770993	1119.97563126	1300.78629536	1021.10521226	1059.53464186	0	0	0
0.18000000	1200.97543971	1300.88429926	1164.30908292	1119.98396496	1300.26618000	1021.06539247	1059.23407171	0	0	0
0.19000000	1201.00508977	1301.06700929	1163.80175516	1120.01636974	1299.84693399	1020.93556855	1058.81979312	0	0	0
0.20000000	1200.97926060	1301.19306225	1163.33460362	1120.07616648	1299.54830288	1020.71317545	1058.30959850	0	0	0
0.21000000	1200.90693735	1301.25229234	1162.90767686	1120.15919954	1299.35921672	1020.43311425	1057.76976095	0	0	0
0.22000000	1200.79884811	1301.23522500	1162.52043341	1120.26081357	1299.26654606	1020.13278997	1057.26979362	0	0	0
0.23000000	1200.66572097	1301.13238567	1162.17233180	1120.37635325	1299.25716149	1019.84960761	1056.87920965	0	0	0
0.24000000	1200.51828402	1300.93429982	1161.86283056	1120.50116326	1299.31793358	1019.62097218	1056.66752216	0	0	0
0.25000000	1200.36726535	1300.63149288	1161.59138823	1120.63058826	1299.43573291	1019.48428870	1056.70424432	0	0	0
0.26000000	1200.22339307	1300.21449029	1161.35746334	1120.75997294	1299.59743003	1019.47696217	1057.05888925	0	0	0
0.27000000	1200.09739525	1299.67381752	1161.16051442	1120.88466196	1299.78989554	1019.63639760	1057.80097010	0	0	0
0.28000000	1200	1299.00000000	1161	1121	1300	1020.00000000	1059.00000000	0	0	0
0.29000000	1199.93893323	1298.19404623	1160.87366444	1121.10139497	1300.21349316	1020.58959465	1060.69069219	0	0	0
0.30000000	1199.90991219	1297.29889693	1160.77239532	1121.18450775	1300.41164147	1021.36468787	1062.76856025	0	0	0
0.31000000	1199.90565193	1296.36797585	1160.68536605	1121.24506248	1300.57459056	1022.26920627	1065.09431786	0	0	0
0.32000000	1199.91886753	1295.45470675	1160.60175004	1121.27878328	1300.68248604	1023.24707644	1067.52867869	0	0	0
0.33000000	1199.94227406	1294.61251339	1160.51072071	1121.28139428	1300.71547354	1024.24222499	1069.93235642	0	0	0
0.34000000	1199.96858657	1293.89481953	1160.40145145	1121.24861960	1300.65369868	1025.19857851	1072.16606472	0	0	0
0.35000000	1199.99052014	1293.35504893	1160.26311567	1121.17618338	1300.47730708	1026.06006360	1074.09051726	0	0	0
0.36000000	1200.00078983	1293.04662534	1160.08488678	1121.05980973	1300.16644437	1026.77060685	1075.56642773	0	0	0
0.37000000	1199.99278838	1293.01966072	1159.85944593	1120.89623571	1299.70731510	1027.27898989	1076.46534580	0	0	0
0.38000000	1199.97004843	1293.27471230	1159.63196038	1120.69735464	1299.17678323	1027.60663977	1076.82095992	0	0	0
0.39000000	1199.94390834	1293.77419004	1159.48800130	1120.48672715	1298.72150256	1027.83090615	1076.79177325	0	0	0
0.40000000	1199.92590726	1294.47952260	1159.51417923	1120.28821403	1298.48992209	1028.03057723	1076.53949965	0	0	0
0.41000000	1199.92758435	1295.35213866	1159.79710466	1120.12567603	1298.63049084	1028.28444118	1076.22585297	0	0	0
0.42000000	1199.96047876	1296.35346689	1160.42338811	1120.02297394	1299.29165785	1028.67128619	1076.01254704	0	0	0
0.43000000	1200.03585336	1297.44432002	1161.47719989	1120.00345762	1300.61786450	1029.26801855	1076.05842108	0	0	0
0.44000000	1200.15423084	1298.56156591	1162.94784739	1120.07061560	1302.59775593	1030.07838518	1076.41056300	0	0	0
0.45000000	1200.30218197	1299.61096722	1164.70140772	1120.20213584	1305.01759247	1031.01109647	1076.97089181	0	0	0
0.46000000	1200.46534512	1300.49620780	1166.59572230	1120.37398200	1307.65010868	1031.96851135	1077.63162466	0	0	0
0.47000000	1200.62935862	1301.12097147	1168.48863256	1120.56211774	1310.26803917	1032.85298873	1078.28497866	0	0	0
0.48000000	1200.77986084	1301.38894209	1170.23797991	1120.74250671	1312.64411851	1033.56688756	1078.82317095	0	0	0
0.49000000	1200.90249012	1301.20380349	1171.70160579	1120.89111258	1314.55108128	1034.01256674	1079.13841867	0	0	0
0.50000000	1200.98288481	1300.46923952	1172.73735161	1120.98389901	1315.76166208	1034.09238521	1079.12293894	0	0	0
0.51000000	1201.00713822	1299.10056251	1173.21425055	1120.99816744	1316.06464505	1033.71623625	1078.67490309	0	0	0
0.52000000	1200.96815085	1297.18708179	1173.16879764	1120.93123641	1315.48896317	1032.90674936	1077.78157480	0	0	0
0.53000000	1200.86406346	1294.95204986	1172.76640037	1120.79583371	1314.24841649	1031.77333863	1076.49880125	0	0	0
0.54000000	1200.69315158	1292.62216471	1172.17578232	1120.60508349	1312.56156049	1030.42765053	1074.88419379	0	0	0
0.55000000	1200.45369076	1290.42412433	1171.56566704	1120.37210990	1310.64695064	1028.98133155	1072.99536380	0	0	0
0.56000000	1200.14395653	1288.58462672	1171.10477811	1120.11003709	1308.72314241	1027.54602817	1070.88992264	0	0	0
0.57000000	1199.76372236	1287.31961599	1170.95368993	1119.83155791	1306.99959440	1026.22899385	1068.62515645	0	0	0
0.58000000	1199.33517526	1286.68412634	1171.15104113	1119.54291150	1305.54964895	1025.07174941	1066.25348474	0	0	0
0.59000000	1198.89775618	1286.60932322	1171.64160395	1119.24536895	1304.34186583	1024.06521453	1063.82358070	0	0	0
0.60000000	1198.49134994	1287.02318574	1172.36773608	1118.94007354	1303.34210945	1023.19900728	1061.38402118	0	0	0
